<?xml version="1.0" encoding="utf-8"?>
<svg viewBox="57.345 202.205 64.201 64.201" width="64.201" height="64.201" xmlns="http://www.w3.org/2000/svg">
  <path d="M 86.572 220.286 L 86.572 248.656 L 85.522 248.656 L 67.212 222.086 L 67.212 248.656 L 66.142 248.656 L 66.142 220.286 L 67.212 220.286 L 85.522 246.806 L 85.522 220.286 L 86.572 220.286 ZM 111.361 241.856 C 111.361 240.649 111.078 239.626 110.511 238.786 C 109.944 237.953 109.054 237.213 107.841 236.566 C 106.628 235.926 104.791 235.266 102.331 234.586 C 99.878 233.913 98.038 233.233 96.811 232.546 C 95.584 231.859 94.684 231.059 94.111 230.146 C 93.544 229.239 93.261 228.136 93.261 226.836 C 93.261 224.769 94.131 223.096 95.871 221.816 C 97.611 220.536 99.878 219.896 102.671 219.896 C 104.484 219.896 106.118 220.253 107.571 220.966 C 109.018 221.673 110.138 222.666 110.931 223.946 C 111.718 225.226 112.111 226.669 112.111 228.276 L 111.061 228.276 C 111.061 226.163 110.284 224.413 108.731 223.026 C 107.171 221.646 105.151 220.956 102.671 220.956 C 100.178 220.956 98.161 221.509 96.621 222.616 C 95.081 223.729 94.311 225.123 94.311 226.796 C 94.311 228.496 94.978 229.866 96.311 230.906 C 97.651 231.946 99.861 232.866 102.941 233.666 C 106.021 234.466 108.274 235.389 109.701 236.436 C 111.521 237.776 112.431 239.569 112.431 241.816 C 112.431 243.243 112.028 244.506 111.221 245.606 C 110.414 246.706 109.271 247.553 107.791 248.146 C 106.311 248.746 104.648 249.046 102.801 249.046 C 100.748 249.046 98.904 248.706 97.271 248.026 C 95.631 247.339 94.401 246.366 93.581 245.106 C 92.754 243.846 92.341 242.359 92.341 240.646 L 93.391 240.646 C 93.391 242.973 94.261 244.779 96.001 246.066 C 97.741 247.353 100.008 247.996 102.801 247.996 C 105.281 247.996 107.328 247.426 108.941 246.286 C 110.554 245.153 111.361 243.676 111.361 241.856 Z" transform="matrix(1, 0, 0, 1, 0, 0)" style="fill: rgb(255, 255, 255); white-space: pre;"/>
  <path d="M 83.036 202.224 L 99.793 224.858 C 99.56 225.339 99.394 225.863 99.31 226.421 C 98.87 229.373 100.908 232.127 103.862 232.568 C 106.813 233.007 109.568 230.968 110.008 228.016 C 110.448 225.065 108.409 222.31 105.457 221.87 C 104.822 221.776 104.194 221.795 103.598 221.915 L 89.019 202.224 L 117.718 202.224 C 119.786 202.224 121.463 203.901 121.463 205.968 C 121.463 217.312 121.463 251.219 121.463 262.563 C 121.463 264.631 119.786 266.308 117.718 266.308 L 95.668 266.308 L 79.091 243.919 C 79.323 243.438 79.491 242.912 79.573 242.355 C 80.014 239.403 77.974 236.65 75.021 236.209 C 72.069 235.767 69.316 237.807 68.875 240.76 C 68.435 243.713 70.474 246.465 73.426 246.907 C 74.062 247.001 74.69 246.981 75.285 246.862 L 89.685 266.308 L 61.122 266.308 C 59.056 266.308 57.379 264.631 57.379 262.563 C 57.379 251.219 57.379 217.312 57.379 205.968 C 57.379 203.901 59.056 202.224 61.122 202.224 L 83.036 202.224 Z" style="fill: rgb(0, 174, 109);"/>
</svg>