<?xml version="1.0" encoding="utf-8"?>
<svg viewBox="0 0 1400 154" width="1400" height="154" style="fill-rule:evenodd;clip-rule:evenodd;stroke-linejoin:round;stroke-miterlimit:1.41421;" xmlns="http://www.w3.org/2000/svg">
  <path d="M 59.942 18.376 L 91.429 60.904 C 90.988 61.81 90.679 62.795 90.522 63.842 C 89.695 69.388 93.525 74.565 99.074 75.392 C 104.621 76.219 109.797 72.387 110.624 66.839 C 111.45 61.293 107.618 56.118 102.071 55.29 C 100.878 55.113 99.7 55.15 98.577 55.374 L 71.185 18.376 L 125.111 18.376 C 128.996 18.376 132.146 21.527 132.146 25.412 C 132.146 46.727 132.146 110.44 132.146 131.756 C 132.146 135.641 128.996 138.792 125.111 138.792 L 83.675 138.792 L 52.528 96.721 C 52.966 95.816 53.279 94.831 53.435 93.784 C 54.261 88.236 50.429 83.062 44.883 82.234 C 39.335 81.405 34.159 85.238 33.333 90.784 C 32.505 96.333 36.337 101.507 41.884 102.335 C 43.08 102.512 44.258 102.476 45.377 102.25 L 72.433 138.792 L 18.767 138.792 C 14.882 138.792 11.731 135.641 11.731 131.756 C 11.731 110.44 11.731 46.727 11.731 25.412 C 11.731 21.527 14.882 18.376 18.767 18.376 L 59.942 18.376 Z" style="fill: rgb(0, 174, 109);"/>
  <path d="M 204.746 44.747 L 213.766 44.747 L 213.766 107.887 L 206.376 107.887 L 168.486 60.807 L 168.486 107.887 L 159.466 107.887 L 159.466 44.747 L 166.866 44.747 L 204.746 91.827 L 204.746 44.747 ZM 251.918 108.427 C 247.172 108.427 242.905 107.374 239.118 105.267 C 235.325 103.167 232.362 100.267 230.228 96.567 C 228.095 92.867 227.028 88.674 227.028 83.987 C 227.028 79.294 228.095 75.097 230.228 71.397 C 232.362 67.704 235.325 64.817 239.118 62.737 C 242.905 60.664 247.172 59.627 251.918 59.627 C 256.672 59.627 260.928 60.664 264.688 62.737 C 268.442 64.817 271.388 67.704 273.528 71.397 C 275.662 75.097 276.728 79.294 276.728 83.987 C 276.728 88.674 275.662 92.867 273.528 96.567 C 271.388 100.267 268.442 103.167 264.688 105.267 C 260.928 107.374 256.672 108.427 251.918 108.427 Z M 251.918 100.847 C 254.985 100.847 257.738 100.14 260.178 98.727 C 262.612 97.314 264.518 95.33 265.898 92.777 C 267.285 90.224 267.978 87.294 267.978 83.987 C 267.978 80.68 267.285 77.747 265.898 75.187 C 264.518 72.634 262.612 70.664 260.178 69.277 C 257.738 67.897 254.985 67.207 251.918 67.207 C 248.852 67.207 246.102 67.897 243.668 69.277 C 241.235 70.664 239.312 72.634 237.898 75.187 C 236.485 77.747 235.778 80.68 235.778 83.987 C 235.778 87.294 236.485 90.224 237.898 92.777 C 239.312 95.33 241.235 97.314 243.668 98.727 C 246.102 100.14 248.852 100.847 251.918 100.847 ZM 325.165 40.957 L 333.825 40.957 L 333.825 107.887 L 325.525 107.887 L 325.525 100.307 C 323.599 102.954 321.162 104.97 318.215 106.357 C 315.269 107.737 312.022 108.427 308.475 108.427 C 303.849 108.427 299.699 107.404 296.025 105.357 C 292.359 103.317 289.489 100.447 287.415 96.747 C 285.342 93.047 284.305 88.794 284.305 83.987 C 284.305 79.174 285.342 74.934 287.415 71.267 C 289.489 67.6 292.359 64.744 296.025 62.697 C 299.699 60.65 303.849 59.627 308.475 59.627 C 311.902 59.627 315.059 60.274 317.945 61.567 C 320.832 62.86 323.239 64.77 325.165 67.297 L 325.165 40.957 Z M 309.195 100.847 C 312.202 100.847 314.939 100.14 317.405 98.727 C 319.872 97.314 321.795 95.33 323.175 92.777 C 324.562 90.224 325.255 87.294 325.255 83.987 C 325.255 80.68 324.562 77.747 323.175 75.187 C 321.795 72.634 319.872 70.664 317.405 69.277 C 314.939 67.897 312.202 67.207 309.195 67.207 C 306.129 67.207 303.379 67.897 300.945 69.277 C 298.512 70.664 296.589 72.634 295.175 75.187 C 293.762 77.747 293.055 80.68 293.055 83.987 C 293.055 87.294 293.762 90.224 295.175 92.777 C 296.589 95.33 298.512 97.314 300.945 98.727 C 303.379 100.14 306.129 100.847 309.195 100.847 ZM 393.442 84.257 C 393.442 84.917 393.382 85.787 393.262 86.867 L 354.482 86.867 C 355.022 91.08 356.868 94.464 360.022 97.017 C 363.182 99.57 367.108 100.847 371.802 100.847 C 377.515 100.847 382.115 98.924 385.602 95.077 L 390.382 100.667 C 388.215 103.194 385.522 105.12 382.302 106.447 C 379.088 107.767 375.498 108.427 371.532 108.427 C 366.478 108.427 361.998 107.39 358.092 105.317 C 354.178 103.244 351.155 100.34 349.022 96.607 C 346.888 92.88 345.822 88.674 345.822 83.987 C 345.822 79.354 346.858 75.174 348.932 71.447 C 351.005 67.72 353.862 64.817 357.502 62.737 C 361.142 60.664 365.245 59.627 369.812 59.627 C 374.385 59.627 378.458 60.664 382.032 62.737 C 385.612 64.817 388.408 67.72 390.422 71.447 C 392.435 75.174 393.442 79.444 393.442 84.257 Z M 369.812 66.937 C 365.665 66.937 362.192 68.2 359.392 70.727 C 356.598 73.254 354.962 76.56 354.482 80.647 L 385.152 80.647 C 384.665 76.62 383.025 73.327 380.232 70.767 C 377.438 68.214 373.965 66.937 369.812 66.937 ZM 419.154 108.427 C 415.248 108.427 411.488 107.9 407.874 106.847 C 404.268 105.794 401.441 104.457 399.394 102.837 L 403.004 95.977 C 405.111 97.484 407.668 98.687 410.674 99.587 C 413.681 100.487 416.718 100.937 419.784 100.937 C 427.364 100.937 431.154 98.774 431.154 94.447 C 431.154 93.007 430.641 91.864 429.614 91.017 C 428.594 90.177 427.318 89.56 425.784 89.167 C 424.251 88.78 422.071 88.347 419.244 87.867 C 415.398 87.26 412.254 86.567 409.814 85.787 C 407.381 85.007 405.291 83.684 403.544 81.817 C 401.804 79.957 400.934 77.34 400.934 73.967 C 400.934 69.64 402.738 66.17 406.344 63.557 C 409.951 60.937 414.791 59.627 420.864 59.627 C 424.051 59.627 427.238 60.02 430.424 60.807 C 433.611 61.587 436.228 62.637 438.274 63.957 L 434.574 70.817 C 430.668 68.29 426.068 67.027 420.774 67.027 C 417.108 67.027 414.311 67.627 412.384 68.827 C 410.464 70.034 409.504 71.627 409.504 73.607 C 409.504 75.174 410.044 76.407 411.124 77.307 C 412.204 78.214 413.541 78.877 415.134 79.297 C 416.734 79.717 418.974 80.197 421.854 80.737 C 425.708 81.397 428.821 82.104 431.194 82.857 C 433.568 83.61 435.598 84.887 437.284 86.687 C 438.964 88.494 439.804 91.02 439.804 94.267 C 439.804 98.594 437.958 102.037 434.264 104.597 C 430.564 107.15 425.528 108.427 419.154 108.427 ZM 510.434 59.627 C 516.448 59.627 521.214 61.37 524.734 64.857 C 528.248 68.35 530.004 73.524 530.004 80.377 L 530.004 107.887 L 521.344 107.887 L 521.344 81.367 C 521.344 76.74 520.278 73.254 518.144 70.907 C 516.011 68.56 512.961 67.387 508.994 67.387 C 504.601 67.387 501.111 68.754 498.524 71.487 C 495.944 74.227 494.654 78.154 494.654 83.267 L 494.654 107.887 L 485.994 107.887 L 485.994 81.367 C 485.994 76.74 484.924 73.254 482.784 70.907 C 480.651 68.56 477.601 67.387 473.634 67.387 C 469.241 67.387 465.754 68.754 463.174 71.487 C 460.588 74.227 459.294 78.154 459.294 83.267 L 459.294 107.887 L 450.634 107.887 L 450.634 60.077 L 458.934 60.077 L 458.934 67.207 C 460.674 64.74 462.958 62.86 465.784 61.567 C 468.611 60.274 471.828 59.627 475.434 59.627 C 479.168 59.627 482.478 60.38 485.364 61.887 C 488.244 63.387 490.468 65.58 492.034 68.467 C 493.841 65.7 496.351 63.537 499.564 61.977 C 502.784 60.41 506.408 59.627 510.434 59.627 ZM 545.976 107.887 L 545.976 60.077 L 554.636 60.077 L 554.636 107.887 L 545.976 107.887 Z M 550.306 50.877 C 548.619 50.877 547.219 50.337 546.106 49.257 C 544.992 48.177 544.436 46.854 544.436 45.287 C 544.436 43.727 544.992 42.39 546.106 41.277 C 547.219 40.164 548.619 39.607 550.306 39.607 C 551.986 39.607 553.382 40.134 554.496 41.187 C 555.609 42.24 556.166 43.547 556.166 45.107 C 556.166 46.734 555.609 48.1 554.496 49.207 C 553.382 50.32 551.986 50.877 550.306 50.877 ZM 595.312 98.867 L 598.022 105.087 C 596.755 106.174 595.192 107 593.332 107.567 C 591.465 108.14 589.538 108.427 587.552 108.427 C 582.745 108.427 579.018 107.134 576.372 104.547 C 573.725 101.96 572.402 98.264 572.402 93.457 L 572.402 67.207 L 564.282 67.207 L 564.282 60.077 L 572.402 60.077 L 572.402 49.617 L 581.062 49.617 L 581.062 60.077 L 594.772 60.077 L 594.772 67.207 L 581.062 67.207 L 581.062 93.097 C 581.062 95.684 581.708 97.667 583.002 99.047 C 584.295 100.427 586.145 101.117 588.552 101.117 C 591.198 101.117 593.452 100.367 595.312 98.867 ZM 634.004 59.627 C 640.078 59.627 644.904 61.387 648.484 64.907 C 652.064 68.427 653.854 73.584 653.854 80.377 L 653.854 107.887 L 645.194 107.887 L 645.194 81.367 C 645.194 76.74 644.081 73.254 641.854 70.907 C 639.628 68.56 636.441 67.387 632.294 67.387 C 627.608 67.387 623.911 68.754 621.204 71.487 C 618.498 74.227 617.144 78.154 617.144 83.267 L 617.144 107.887 L 608.484 107.887 L 608.484 40.957 L 617.144 40.957 L 617.144 66.847 C 618.944 64.56 621.304 62.787 624.224 61.527 C 627.138 60.26 630.398 59.627 634.004 59.627 Z" transform="matrix(1, 0, 0, 1, 0, 0)" style="fill: rgb(51, 51, 51); white-space: pre;"/>
  <path d="M 743.513 107.887 L 735.393 90.117 L 698.773 90.117 L 690.743 107.887 L 685.783 107.887 L 714.833 44.747 L 719.433 44.747 L 748.473 107.887 L 743.513 107.887 Z M 700.573 86.237 L 733.683 86.237 L 717.083 49.797 L 700.573 86.237 ZM 782.564 44.747 C 790.504 44.747 796.731 46.627 801.244 50.387 C 805.751 54.14 808.004 59.357 808.004 66.037 C 808.004 72.65 805.751 77.837 801.244 81.597 C 796.731 85.35 790.504 87.227 782.564 87.227 L 764.524 87.227 L 764.524 107.887 L 759.924 107.887 L 759.924 44.747 L 782.564 44.747 Z M 782.564 83.087 C 789.304 83.087 794.447 81.614 797.994 78.667 C 801.541 75.72 803.314 71.51 803.314 66.037 C 803.314 60.564 801.541 56.337 797.994 53.357 C 794.447 50.384 789.304 48.897 782.564 48.897 L 764.524 48.897 L 764.524 83.087 L 782.564 83.087 ZM 823.515 107.887 L 823.515 44.747 L 828.115 44.747 L 828.115 107.887 L 823.515 107.887 ZM 895.945 44.747 C 903.885 44.747 910.112 46.627 914.625 50.387 C 919.132 54.14 921.385 59.357 921.385 66.037 C 921.385 72.65 919.132 77.837 914.625 81.597 C 910.112 85.35 903.885 87.227 895.945 87.227 L 877.905 87.227 L 877.905 107.887 L 873.305 107.887 L 873.305 44.747 L 895.945 44.747 Z M 895.945 83.087 C 902.685 83.087 907.829 81.614 911.375 78.667 C 914.922 75.72 916.695 71.51 916.695 66.037 C 916.695 60.564 914.922 56.337 911.375 53.357 C 907.829 50.384 902.685 48.897 895.945 48.897 L 877.905 48.897 L 877.905 83.087 L 895.945 83.087 ZM 936.358 107.887 L 936.358 40.957 L 940.868 40.957 L 940.868 107.887 L 936.358 107.887 ZM 975.78 60.437 C 981.614 60.437 986.094 61.927 989.22 64.907 C 992.347 67.88 993.91 72.254 993.91 78.027 L 993.91 107.887 L 989.58 107.887 L 989.58 99.497 C 988.074 102.264 985.877 104.414 982.99 105.947 C 980.104 107.48 976.647 108.247 972.62 108.247 C 967.387 108.247 963.254 107.014 960.22 104.547 C 957.18 102.08 955.66 98.834 955.66 94.807 C 955.66 90.9 957.06 87.727 959.86 85.287 C 962.654 82.854 967.117 81.637 973.25 81.637 L 989.4 81.637 L 989.4 77.847 C 989.4 73.46 988.21 70.124 985.83 67.837 C 983.457 65.55 979.987 64.407 975.42 64.407 C 972.294 64.407 969.3 64.95 966.44 66.037 C 963.587 67.117 961.167 68.56 959.18 70.367 L 956.92 67.117 C 959.267 65.01 962.094 63.37 965.4 62.197 C 968.707 61.024 972.167 60.437 975.78 60.437 Z M 973.25 104.547 C 977.157 104.547 980.48 103.647 983.22 101.847 C 985.954 100.04 988.014 97.424 989.4 93.997 L 989.4 85.157 L 973.34 85.157 C 968.714 85.157 965.36 86 963.28 87.687 C 961.207 89.367 960.17 91.68 960.17 94.627 C 960.17 97.694 961.314 100.114 963.6 101.887 C 965.887 103.66 969.104 104.547 973.25 104.547 ZM 1044.775 60.807 L 1049.385 60.807 L 1025.205 114.287 C 1023.405 118.44 1021.315 121.387 1018.935 123.127 C 1016.562 124.874 1013.752 125.747 1010.505 125.747 C 1008.338 125.747 1006.308 125.387 1004.415 124.667 C 1002.522 123.94 1000.912 122.887 999.585 121.507 L 1001.845 118.077 C 1004.252 120.544 1007.168 121.777 1010.595 121.777 C 1012.882 121.777 1014.835 121.147 1016.455 119.887 C 1018.082 118.62 1019.585 116.454 1020.965 113.387 L 1023.495 107.707 L 1002.295 60.807 L 1007.075 60.807 L 1025.925 102.927 L 1044.775 60.807 ZM 1095.928 60.807 L 1100.258 60.807 L 1100.258 102.837 C 1100.258 110.65 1098.361 116.424 1094.568 120.157 C 1090.781 123.884 1085.068 125.747 1077.428 125.747 C 1073.101 125.747 1069.014 125.087 1065.168 123.767 C 1061.314 122.44 1058.218 120.604 1055.878 118.257 L 1058.308 114.837 C 1060.654 116.997 1063.481 118.68 1066.788 119.887 C 1070.094 121.087 1073.611 121.687 1077.338 121.687 C 1083.598 121.687 1088.231 120.2 1091.238 117.227 C 1094.244 114.247 1095.748 109.63 1095.748 103.377 L 1095.748 95.437 C 1093.821 98.864 1091.144 101.51 1087.718 103.377 C 1084.291 105.244 1080.441 106.177 1076.168 106.177 C 1071.781 106.177 1067.798 105.197 1064.218 103.237 C 1060.638 101.284 1057.828 98.564 1055.788 95.077 C 1053.741 91.59 1052.718 87.654 1052.718 83.267 C 1052.718 78.874 1053.741 74.934 1055.788 71.447 C 1057.828 67.96 1060.638 65.254 1064.218 63.327 C 1067.798 61.4 1071.781 60.437 1076.168 60.437 C 1080.501 60.437 1084.411 61.4 1087.898 63.327 C 1091.384 65.254 1094.061 67.96 1095.928 71.447 L 1095.928 60.807 Z M 1076.528 102.117 C 1080.194 102.117 1083.501 101.32 1086.448 99.727 C 1089.394 98.134 1091.694 95.907 1093.348 93.047 C 1095.008 90.194 1095.838 86.934 1095.838 83.267 C 1095.838 79.594 1095.008 76.344 1093.348 73.517 C 1091.694 70.69 1089.394 68.48 1086.448 66.887 C 1083.501 65.294 1080.194 64.497 1076.528 64.497 C 1072.861 64.497 1069.571 65.294 1066.658 66.887 C 1063.738 68.48 1061.451 70.69 1059.798 73.517 C 1058.144 76.344 1057.318 79.594 1057.318 83.267 C 1057.318 86.934 1058.144 90.194 1059.798 93.047 C 1061.451 95.907 1063.738 98.134 1066.658 99.727 C 1069.571 101.32 1072.861 102.117 1076.528 102.117 ZM 1123.704 71.087 C 1125.151 67.66 1127.407 65.03 1130.474 63.197 C 1133.541 61.357 1137.267 60.437 1141.654 60.437 L 1141.654 64.857 L 1140.574 64.767 C 1135.341 64.767 1131.251 66.407 1128.304 69.687 C 1125.357 72.967 1123.884 77.524 1123.884 83.357 L 1123.884 107.887 L 1119.374 107.887 L 1119.374 60.807 L 1123.704 60.807 L 1123.704 71.087 ZM 1172.05 108.247 C 1167.603 108.247 1163.59 107.224 1160.01 105.177 C 1156.43 103.137 1153.62 100.297 1151.58 96.657 C 1149.533 93.017 1148.51 88.914 1148.51 84.347 C 1148.51 79.774 1149.533 75.67 1151.58 72.037 C 1153.62 68.397 1156.43 65.554 1160.01 63.507 C 1163.59 61.46 1167.603 60.437 1172.05 60.437 C 1176.503 60.437 1180.517 61.46 1184.09 63.507 C 1187.67 65.554 1190.483 68.397 1192.53 72.037 C 1194.57 75.67 1195.59 79.774 1195.59 84.347 C 1195.59 88.914 1194.57 93.017 1192.53 96.657 C 1190.483 100.297 1187.67 103.137 1184.09 105.177 C 1180.517 107.224 1176.503 108.247 1172.05 108.247 Z M 1172.05 104.187 C 1175.657 104.187 1178.89 103.347 1181.75 101.667 C 1184.603 99.98 1186.857 97.634 1188.51 94.627 C 1190.163 91.62 1190.99 88.194 1190.99 84.347 C 1190.99 80.494 1190.163 77.064 1188.51 74.057 C 1186.857 71.05 1184.603 68.707 1181.75 67.027 C 1178.89 65.34 1175.657 64.497 1172.05 64.497 C 1168.443 64.497 1165.213 65.34 1162.36 67.027 C 1159.5 68.707 1157.243 71.05 1155.59 74.057 C 1153.937 77.064 1153.11 80.494 1153.11 84.347 C 1153.11 88.194 1153.937 91.62 1155.59 94.627 C 1157.243 97.634 1159.5 99.98 1162.36 101.667 C 1165.213 103.347 1168.443 104.187 1172.05 104.187 ZM 1246.284 60.807 L 1250.794 60.807 L 1250.794 107.887 L 1246.464 107.887 L 1246.464 97.787 C 1244.904 101.094 1242.591 103.664 1239.524 105.497 C 1236.457 107.33 1232.847 108.247 1228.694 108.247 C 1222.561 108.247 1217.751 106.534 1214.264 103.107 C 1210.777 99.68 1209.034 94.75 1209.034 88.317 L 1209.034 60.807 L 1213.544 60.807 L 1213.544 87.957 C 1213.544 93.244 1214.897 97.27 1217.604 100.037 C 1220.311 102.804 1224.127 104.187 1229.054 104.187 C 1234.347 104.187 1238.544 102.534 1241.644 99.227 C 1244.737 95.92 1246.284 91.47 1246.284 85.877 L 1246.284 60.807 ZM 1292.918 60.437 C 1298.811 60.437 1303.471 62.154 1306.898 65.587 C 1310.325 69.014 1312.038 73.944 1312.038 80.377 L 1312.038 107.887 L 1307.528 107.887 L 1307.528 80.737 C 1307.528 75.444 1306.191 71.414 1303.518 68.647 C 1300.845 65.88 1297.101 64.497 1292.288 64.497 C 1286.755 64.497 1282.395 66.15 1279.208 69.457 C 1276.021 72.77 1274.428 77.22 1274.428 82.807 L 1274.428 107.887 L 1269.918 107.887 L 1269.918 60.807 L 1274.248 60.807 L 1274.248 70.997 C 1275.875 67.69 1278.295 65.104 1281.508 63.237 C 1284.728 61.37 1288.531 60.437 1292.918 60.437 ZM 1368.053 40.957 L 1372.563 40.957 L 1372.563 107.887 L 1368.143 107.887 L 1368.143 96.797 C 1366.283 100.464 1363.669 103.287 1360.303 105.267 C 1356.936 107.254 1353.116 108.247 1348.843 108.247 C 1344.456 108.247 1340.489 107.224 1336.943 105.177 C 1333.389 103.137 1330.606 100.314 1328.593 96.707 C 1326.579 93.094 1325.573 88.974 1325.573 84.347 C 1325.573 79.714 1326.579 75.58 1328.593 71.947 C 1330.606 68.307 1333.389 65.48 1336.943 63.467 C 1340.489 61.447 1344.456 60.437 1348.843 60.437 C 1353.056 60.437 1356.829 61.43 1360.163 63.417 C 1363.503 65.404 1366.133 68.17 1368.053 71.717 L 1368.053 40.957 Z M 1349.113 104.187 C 1352.719 104.187 1355.953 103.347 1358.813 101.667 C 1361.666 99.98 1363.919 97.634 1365.573 94.627 C 1367.226 91.62 1368.053 88.194 1368.053 84.347 C 1368.053 80.494 1367.226 77.064 1365.573 74.057 C 1363.919 71.05 1361.666 68.707 1358.813 67.027 C 1355.953 65.34 1352.719 64.497 1349.113 64.497 C 1345.506 64.497 1342.276 65.34 1339.423 67.027 C 1336.563 68.707 1334.306 71.05 1332.653 74.057 C 1330.999 77.064 1330.173 80.494 1330.173 84.347 C 1330.173 88.194 1330.999 91.62 1332.653 94.627 C 1334.306 97.634 1336.563 99.98 1339.423 101.667 C 1342.276 103.347 1345.506 104.187 1349.113 104.187 Z" transform="matrix(1, 0, 0, 1, 0, 0)" style="fill: rgb(51, 51, 51); white-space: pre;"/>
</svg>